<mxfile host="app.diagrams.net" modified="2021-01-11T02:55:13.582Z" agent="5.0 (Windows NT 10.0; Win64; x64) AppleWebKit/537.36 (KHTML, like Gecko) Chrome/87.0.4280.141 Safari/537.36" etag="Wye0uwfYShb1XDxqNsSR" version="14.1.8" type="github">
  <diagram id="1c9xq_AZjTGM-AyKx4Dq" name="Page-1">
    <mxGraphModel dx="1424" dy="794" grid="1" gridSize="10" guides="1" tooltips="1" connect="1" arrows="1" fold="1" page="1" pageScale="1" pageWidth="827" pageHeight="1169" background="none" math="0" shadow="1">
      <root>
        <mxCell id="0" />
        <mxCell id="1" parent="0" />
        <mxCell id="K_ehTpFvpzUrssK6-Hx9-73" value="" style="group" vertex="1" connectable="0" parent="1">
          <mxGeometry x="119" y="160" width="590" height="310" as="geometry" />
        </mxCell>
        <mxCell id="K_ehTpFvpzUrssK6-Hx9-70" value="" style="group" vertex="1" connectable="0" parent="K_ehTpFvpzUrssK6-Hx9-73">
          <mxGeometry width="590" height="310" as="geometry" />
        </mxCell>
        <mxCell id="K_ehTpFvpzUrssK6-Hx9-68" value="BGA Type" style="whiteSpace=wrap;html=1;align=center;strokeWidth=1;fillColor=#ffff88;verticalAlign=bottom;strokeColor=#36393d;opacity=20;" vertex="1" parent="K_ehTpFvpzUrssK6-Hx9-70">
          <mxGeometry width="390" height="310" as="geometry" />
        </mxCell>
        <mxCell id="K_ehTpFvpzUrssK6-Hx9-69" value="LF Type" style="whiteSpace=wrap;html=1;align=center;strokeWidth=1;fillColor=#ffff88;verticalAlign=bottom;strokeColor=#36393d;opacity=20;" vertex="1" parent="K_ehTpFvpzUrssK6-Hx9-70">
          <mxGeometry x="400" width="190" height="310" as="geometry" />
        </mxCell>
        <mxCell id="K_ehTpFvpzUrssK6-Hx9-72" value="" style="group" vertex="1" connectable="0" parent="K_ehTpFvpzUrssK6-Hx9-73">
          <mxGeometry x="10" y="10" width="570" height="250" as="geometry" />
        </mxCell>
        <mxCell id="K_ehTpFvpzUrssK6-Hx9-66" value="Auto CAD" style="whiteSpace=wrap;html=1;align=center;strokeWidth=1;fillColor=#cce5ff;verticalAlign=bottom;strokeColor=#36393d;opacity=20;shadow=1;" vertex="1" parent="K_ehTpFvpzUrssK6-Hx9-72">
          <mxGeometry x="130" width="440" height="250" as="geometry" />
        </mxCell>
        <mxCell id="K_ehTpFvpzUrssK6-Hx9-67" value="Cadence Allegro" style="whiteSpace=wrap;html=1;align=center;strokeWidth=1;fillColor=#cce5ff;verticalAlign=bottom;strokeColor=#36393d;opacity=20;shadow=1;" vertex="1" parent="K_ehTpFvpzUrssK6-Hx9-72">
          <mxGeometry width="120" height="250" as="geometry" />
        </mxCell>
        <mxCell id="K_ehTpFvpzUrssK6-Hx9-45" style="edgeStyle=orthogonalEdgeStyle;rounded=0;orthogonalLoop=1;jettySize=auto;html=1;strokeWidth=3;endFill=0;endArrow=none;" edge="1" parent="1" source="K_ehTpFvpzUrssK6-Hx9-1" target="K_ehTpFvpzUrssK6-Hx9-3">
          <mxGeometry relative="1" as="geometry" />
        </mxCell>
        <mxCell id="K_ehTpFvpzUrssK6-Hx9-57" style="edgeStyle=orthogonalEdgeStyle;rounded=0;orthogonalLoop=1;jettySize=auto;html=1;exitX=0.75;exitY=1;exitDx=0;exitDy=0;strokeWidth=3;endArrow=none;endFill=0;" edge="1" parent="1" source="K_ehTpFvpzUrssK6-Hx9-1" target="K_ehTpFvpzUrssK6-Hx9-4">
          <mxGeometry relative="1" as="geometry" />
        </mxCell>
        <mxCell id="K_ehTpFvpzUrssK6-Hx9-58" style="edgeStyle=orthogonalEdgeStyle;rounded=0;orthogonalLoop=1;jettySize=auto;html=1;exitX=0.25;exitY=1;exitDx=0;exitDy=0;entryX=0.5;entryY=0;entryDx=0;entryDy=0;strokeWidth=3;endFill=0;endArrow=none;" edge="1" parent="1" source="K_ehTpFvpzUrssK6-Hx9-1" target="K_ehTpFvpzUrssK6-Hx9-2">
          <mxGeometry relative="1" as="geometry" />
        </mxCell>
        <mxCell id="K_ehTpFvpzUrssK6-Hx9-1" value="Auto Create Netlist" style="rounded=1;whiteSpace=wrap;html=1;strokeWidth=3;fillColor=#ffe6cc;strokeColor=#d79b00;" vertex="1" parent="1">
          <mxGeometry x="333" y="90" width="100" height="60" as="geometry" />
        </mxCell>
        <mxCell id="K_ehTpFvpzUrssK6-Hx9-51" style="edgeStyle=orthogonalEdgeStyle;rounded=0;orthogonalLoop=1;jettySize=auto;html=1;exitX=0.5;exitY=1;exitDx=0;exitDy=0;entryX=0.5;entryY=0;entryDx=0;entryDy=0;strokeWidth=3;endFill=0;endArrow=none;" edge="1" parent="1" source="K_ehTpFvpzUrssK6-Hx9-2" target="K_ehTpFvpzUrssK6-Hx9-12">
          <mxGeometry relative="1" as="geometry" />
        </mxCell>
        <mxCell id="K_ehTpFvpzUrssK6-Hx9-2" value="BGA Substrate" style="rounded=1;whiteSpace=wrap;html=1;fillColor=#d5e8d4;strokeColor=#82b366;strokeWidth=3;" vertex="1" parent="1">
          <mxGeometry x="140" y="200" width="100" height="60" as="geometry" />
        </mxCell>
        <mxCell id="K_ehTpFvpzUrssK6-Hx9-46" style="edgeStyle=orthogonalEdgeStyle;rounded=0;orthogonalLoop=1;jettySize=auto;html=1;exitX=0.5;exitY=1;exitDx=0;exitDy=0;entryX=0.5;entryY=0;entryDx=0;entryDy=0;strokeWidth=3;endFill=0;endArrow=none;" edge="1" parent="1" source="K_ehTpFvpzUrssK6-Hx9-3" target="K_ehTpFvpzUrssK6-Hx9-11">
          <mxGeometry relative="1" as="geometry" />
        </mxCell>
        <mxCell id="K_ehTpFvpzUrssK6-Hx9-54" style="edgeStyle=orthogonalEdgeStyle;rounded=0;orthogonalLoop=1;jettySize=auto;html=1;exitX=0.75;exitY=1;exitDx=0;exitDy=0;entryX=0.5;entryY=0;entryDx=0;entryDy=0;strokeWidth=3;endFill=0;endArrow=none;" edge="1" parent="1" source="K_ehTpFvpzUrssK6-Hx9-3" target="K_ehTpFvpzUrssK6-Hx9-31">
          <mxGeometry relative="1" as="geometry" />
        </mxCell>
        <mxCell id="K_ehTpFvpzUrssK6-Hx9-56" style="edgeStyle=orthogonalEdgeStyle;rounded=0;orthogonalLoop=1;jettySize=auto;html=1;exitX=0.25;exitY=1;exitDx=0;exitDy=0;entryX=0.5;entryY=0;entryDx=0;entryDy=0;strokeWidth=3;endFill=0;endArrow=none;" edge="1" parent="1" source="K_ehTpFvpzUrssK6-Hx9-3" target="K_ehTpFvpzUrssK6-Hx9-8">
          <mxGeometry relative="1" as="geometry" />
        </mxCell>
        <mxCell id="K_ehTpFvpzUrssK6-Hx9-3" value="&lt;span&gt;BGA BD&lt;/span&gt;" style="rounded=1;whiteSpace=wrap;html=1;fillColor=#d5e8d4;strokeColor=#82b366;strokeWidth=3;" vertex="1" parent="1">
          <mxGeometry x="333" y="200" width="100" height="60" as="geometry" />
        </mxCell>
        <mxCell id="K_ehTpFvpzUrssK6-Hx9-52" style="edgeStyle=orthogonalEdgeStyle;rounded=0;orthogonalLoop=1;jettySize=auto;html=1;exitX=0.25;exitY=1;exitDx=0;exitDy=0;strokeWidth=3;endFill=0;endArrow=none;" edge="1" parent="1" source="K_ehTpFvpzUrssK6-Hx9-4" target="K_ehTpFvpzUrssK6-Hx9-10">
          <mxGeometry relative="1" as="geometry" />
        </mxCell>
        <mxCell id="K_ehTpFvpzUrssK6-Hx9-53" style="edgeStyle=orthogonalEdgeStyle;rounded=0;orthogonalLoop=1;jettySize=auto;html=1;exitX=0.75;exitY=1;exitDx=0;exitDy=0;entryX=0.5;entryY=0;entryDx=0;entryDy=0;strokeWidth=3;endFill=0;endArrow=none;" edge="1" parent="1" source="K_ehTpFvpzUrssK6-Hx9-4" target="K_ehTpFvpzUrssK6-Hx9-32">
          <mxGeometry relative="1" as="geometry" />
        </mxCell>
        <mxCell id="K_ehTpFvpzUrssK6-Hx9-4" value="LF BD" style="rounded=1;whiteSpace=wrap;html=1;fillColor=#d5e8d4;strokeColor=#82b366;strokeWidth=3;" vertex="1" parent="1">
          <mxGeometry x="567" y="200" width="100" height="60" as="geometry" />
        </mxCell>
        <mxCell id="K_ehTpFvpzUrssK6-Hx9-12" value="&lt;span&gt;STD + MTK&lt;/span&gt;" style="rounded=1;whiteSpace=wrap;html=1;fillColor=#dae8fc;strokeColor=#6c8ebf;strokeWidth=3;" vertex="1" parent="1">
          <mxGeometry x="155" y="300" width="70" height="60" as="geometry" />
        </mxCell>
        <mxCell id="K_ehTpFvpzUrssK6-Hx9-8" value="STD" style="rounded=1;whiteSpace=wrap;html=1;strokeColor=#6c8ebf;fillColor=#dae8fc;strokeWidth=3;" vertex="1" parent="1">
          <mxGeometry x="264" y="300" width="70" height="60" as="geometry" />
        </mxCell>
        <mxCell id="K_ehTpFvpzUrssK6-Hx9-11" value="&lt;span&gt;MTK&lt;/span&gt;" style="rounded=1;whiteSpace=wrap;html=1;strokeColor=#6c8ebf;fillColor=#dae8fc;strokeWidth=3;" vertex="1" parent="1">
          <mxGeometry x="348" y="300" width="70" height="60" as="geometry" />
        </mxCell>
        <mxCell id="K_ehTpFvpzUrssK6-Hx9-31" value="COMPARE" style="rounded=1;whiteSpace=wrap;html=1;strokeColor=#6c8ebf;fillColor=#dae8fc;strokeWidth=3;" vertex="1" parent="1">
          <mxGeometry x="432" y="300" width="70" height="60" as="geometry" />
        </mxCell>
        <mxCell id="K_ehTpFvpzUrssK6-Hx9-10" value="STD" style="rounded=1;whiteSpace=wrap;html=1;strokeColor=#6c8ebf;fillColor=#dae8fc;strokeWidth=3;" vertex="1" parent="1">
          <mxGeometry x="540" y="300" width="70" height="60" as="geometry" />
        </mxCell>
        <mxCell id="K_ehTpFvpzUrssK6-Hx9-32" value="&lt;span&gt;MTK&lt;/span&gt;" style="rounded=1;whiteSpace=wrap;html=1;strokeColor=#6c8ebf;fillColor=#dae8fc;strokeWidth=3;" vertex="1" parent="1">
          <mxGeometry x="624" y="300" width="70" height="60" as="geometry" />
        </mxCell>
      </root>
    </mxGraphModel>
  </diagram>
</mxfile>
